<?xml version="1.0" encoding="utf-8"?>
<!-- Generator: Adobe Illustrator 22.0.1, SVG Export Plug-In . SVG Version: 6.00 Build 0)  -->
<svg version="1.1" baseProfile="tiny" id="Calque_1"
	 xmlns="http://www.w3.org/2000/svg" xmlns:xlink="http://www.w3.org/1999/xlink" x="0px" y="0px" viewBox="0 0 164 73.5"
	 xml:space="preserve">
<g>
	<g>
		<path d="M38.5,42.8l2.1,7l2-7h1.7l2.1,7l2-7h1.8l-3,9h-1.8l-2-6.7l-2,6.7h-1.8l-3-9H38.5z"/>
		<path d="M58.2,42.8v1.5h-4.8v2.2h4.3V48h-4.3v2.3h5v1.5h-6.7v-9H58.2z"/>
		<path d="M67.6,45.1c0,1-0.6,1.7-1.6,2c1.2,0.2,1.9,1.1,1.9,2.3c0,1.5-1.3,2.5-3.3,2.5h-4.1v-9h4C66.5,42.8,67.6,43.7,67.6,45.1z
			 M65.9,45.4c0-0.7-0.5-1.1-1.4-1.1h-2.2v2.2h2.2C65.4,46.5,65.9,46.1,65.9,45.4z M66.2,49.1c0-0.7-0.7-1.2-1.7-1.2h-2.2v2.4h2.2
			C65.6,50.3,66.2,49.9,66.2,49.1z"/>
		<path d="M71.3,51c0,0.3-0.1,0.5-0.2,0.7l-0.8,1.2h-0.8l0.5-1.2c-0.2-0.2-0.4-0.4-0.4-0.7c0-0.5,0.4-0.9,0.9-0.9
			C70.9,50.1,71.3,50.4,71.3,51z"/>
		<path d="M81.2,44.3c-1.7,0-3,1.3-3,3c0,1.7,1.3,3,3,3c0.9,0,1.8-0.4,2.4-1l1,1.1c-0.9,0.9-2.2,1.5-3.5,1.5c-2.6,0-4.7-2-4.7-4.6
			c0-2.6,2.1-4.5,4.7-4.5c1.3,0,2.6,0.6,3.5,1.4l-1,1.3C83,44.7,82.1,44.3,81.2,44.3z"/>
		<path d="M95.2,47.3c0,2.6-2.1,4.6-4.8,4.6s-4.8-2-4.8-4.6c0-2.6,2.1-4.5,4.8-4.5S95.2,44.7,95.2,47.3z M87.4,47.3c0,1.7,1.4,3,3,3
			c1.6,0,3-1.3,3-3s-1.4-3-3-3C88.8,44.3,87.4,45.6,87.4,47.3z"/>
		<path d="M99.2,42.8l2.8,5.7l2.8-5.7h2v9h-1.6l0-6.4l-2.6,5.5h-1.1l-2.6-5.5v6.4h-1.6v-9H99.2z"/>
		<path d="M119.7,52.1l-1.4-1.3c-0.8,0.7-1.7,1.1-2.7,1.1c-1.6,0-2.9-1.1-2.9-2.5c0-1.2,0.9-1.9,1.9-2.5c-0.6-0.8-0.8-1.4-0.8-2
			c0-1.2,0.9-2.1,2.4-2.1c1.4,0,2.3,0.8,2.3,1.9c0,1.2-1.1,1.9-2.1,2.4c0.5,0.5,1,1.1,1.7,1.8c0.3-0.4,0.5-1,0.7-1.6l1.1,0.8
			c-0.2,0.6-0.6,1.2-0.9,1.7l1.4,1.4L119.7,52.1z M117.5,49.9c-0.9-0.8-1.5-1.5-2.1-2.2c-0.7,0.4-1.2,0.8-1.2,1.5
			c0,0.8,0.7,1.4,1.6,1.4C116.4,50.6,116.9,50.3,117.5,49.9z M115.8,46.3c0.8-0.4,1.5-0.9,1.5-1.6c0-0.5-0.4-0.9-1-0.9
			c-0.7,0-1.1,0.4-1.1,1C115.2,45.2,115.4,45.7,115.8,46.3z"/>
		<path d="M43.8,60.1h1.5v3.4c-0.9,0.7-2.3,1.2-3.5,1.2c-2.7,0-4.7-2-4.7-4.6s2.1-4.5,4.8-4.5c1.3,0,2.6,0.5,3.5,1.3l-1,1.3
			c-0.7-0.6-1.6-1-2.5-1c-1.7,0-3.1,1.3-3.1,3c0,1.7,1.4,3,3.1,3c0.6,0,1.3-0.2,1.9-0.6V60.1z"/>
		<path d="M53.4,64.6l-1.5-2.6c-0.1,0-0.2,0-0.3,0h-2v2.6h-1.7v-9h3.7c2.3,0,3.6,1.1,3.6,3.1c0,1.4-0.6,2.4-1.8,2.9l2,3H53.4z
			 M49.5,60.4h2c1.3,0,2-0.6,2-1.7c0-1.1-0.7-1.6-2-1.6h-2V60.4z"/>
		<path d="M63.4,62.7H59l-0.8,1.9h-1.8l3.9-9h1.8l3.9,9h-1.8L63.4,62.7z M62.8,61.2l-1.6-3.8l-1.6,3.8H62.8z"/>
		<path d="M74.8,58.7c0,2-1.3,3.2-3.5,3.2h-2v2.6h-1.7v-9h3.7C73.5,55.6,74.8,56.7,74.8,58.7z M73.2,58.7c0-1.1-0.7-1.6-2-1.6h-1.9
			v3.3h1.9C72.4,60.4,73.2,59.9,73.2,58.7z"/>
		<path d="M78.4,55.6v3.8h4.5v-3.8h1.7v9h-1.7v-3.6h-4.5v3.6h-1.7v-9H78.4z"/>
		<path d="M89,55.6v9h-1.7v-9H89z"/>
		<path d="M95.8,57.1c-1.7,0-3,1.3-3,3c0,1.7,1.3,3,3,3c0.9,0,1.8-0.4,2.4-1l1,1.1c-0.9,0.9-2.2,1.5-3.5,1.5c-2.6,0-4.7-2-4.7-4.6
			c0-2.6,2.1-4.5,4.7-4.5c1.3,0,2.6,0.6,3.5,1.4l-1,1.3C97.6,57.5,96.6,57.1,95.8,57.1z"/>
		<path d="M113.2,60.1c0,2.6-2,4.5-4.7,4.5h-3.7v-9h3.7C111.2,55.6,113.2,57.5,113.2,60.1z M111.5,60.1c0-1.8-1.3-3-2.9-3h-2v5.9h2
			C110.2,63.1,111.5,61.8,111.5,60.1z"/>
		<path d="M121.8,55.6v1.5h-4.8v2.2h4.3v1.5h-4.3v2.3h5v1.5h-6.7v-9H121.8z"/>
		<path d="M127.1,57.1c-0.8,0-1.3,0.3-1.3,0.8c0,1.8,4.8,0.8,4.8,4c0,1.7-1.5,2.6-3.4,2.6c-1.4,0-2.8-0.6-3.8-1.4l0.7-1.4
			c0.9,0.8,2.1,1.3,3.1,1.3s1.5-0.4,1.5-1c0-1.9-4.8-0.8-4.8-4c0-1.6,1.3-2.6,3.4-2.6c1.2,0,2.4,0.4,3.2,0.9l-0.7,1.5
			C128.8,57.4,127.8,57.1,127.1,57.1z"/>
		<path d="M134.4,55.6v9h-1.7v-9H134.4z"/>
		<path d="M143.2,60.1h1.5v3.4c-0.9,0.7-2.3,1.2-3.5,1.2c-2.7,0-4.7-2-4.7-4.6s2.1-4.5,4.8-4.5c1.3,0,2.6,0.5,3.5,1.3l-1,1.3
			c-0.7-0.6-1.6-1-2.5-1c-1.7,0-3.1,1.3-3.1,3c0,1.7,1.4,3,3.1,3c0.6,0,1.3-0.2,1.9-0.6V60.1z"/>
		<path d="M148.7,55.6l4.6,6.1v-6.1h1.7v9h-1.6l-4.6-6.1v6.1h-1.7v-9H148.7z"/>
	</g>
	<path fill="#F07D17" d="M82.1,37.1c7.8,0,14.2-6.3,14.2-14S90,9,82.1,9c-7.8,0-14.2,6.3-14.2,14S74.3,37.1,82.1,37.1z M82.1,15.7
		c4.1,0,7.4,3.3,7.4,7.3c0,4.1-3.3,7.4-7.4,7.4c-4.1,0-7.4-3.3-7.4-7.4C74.7,19,78,15.7,82.1,15.7z"/>
	<path fill="#F07D17" d="M36.6,37.2h6.8l0-13.7c0-4.2,3.3-7.6,7.4-7.6c4.1,0,7.4,3.4,7.4,7.6v13.7h6.8l0-13.7
		c0-8-6.4-14.4-14.2-14.4C43,9,36.6,15.4,36.6,23.4V37.2z"/>
	<path fill="#F07D17" d="M21.3,23.6c0-0.9-0.2-1.8-0.5-2.7L16.2,9H9l8.1,21.1C19.6,29.1,21.3,26.6,21.3,23.6z"/>
	<polygon fill="#F07D17" points="113.3,37.2 124.1,9 116.8,9 106,37.2 	"/>
	<path fill="#F07D17" d="M107.5,23.6c0-0.9-0.2-1.8-0.5-2.7L102.5,9h-7.3l8.1,21.1C105.8,29.1,107.5,26.6,107.5,23.6z"/>
	<polygon fill="#F07D17" points="30.6,9 12.7,55.5 20,55.5 37.8,9 	"/>
</g>
</svg>
