<?xml version="1.0" encoding="utf-8"?>
<!-- Generator: Adobe Illustrator 22.0.1, SVG Export Plug-In . SVG Version: 6.00 Build 0)  -->
<svg version="1.1" baseProfile="tiny" id="Calque_1"
	 xmlns="http://www.w3.org/2000/svg" xmlns:xlink="http://www.w3.org/1999/xlink" x="0px" y="0px" viewBox="0 0 174.4 71.1"
	 xml:space="preserve">
<g>
	<g>
		<path d="M82,36.6c7.9,0,14.3-6.3,14.3-14.1S89.8,8.4,82,8.4c-7.9,0-14.3,6.3-14.3,14.1S74.1,36.6,82,36.6z M82,15.1
			c4.1,0,7.5,3.3,7.5,7.4c0,4.1-3.3,7.4-7.5,7.4c-4.1,0-7.5-3.3-7.5-7.4C74.5,18.4,77.8,15.1,82,15.1z"/>
		<path d="M36.2,36.7H43l0-13.8c0-4.2,3.3-7.6,7.5-7.6c4.1,0,7.5,3.4,7.5,7.6v13.8h6.8l0-13.8c0-8-6.4-14.5-14.3-14.5
			c-7.9,0-14.3,6.5-14.3,14.5V36.7z"/>
		<path d="M20.8,23.1c0-0.9-0.2-1.9-0.5-2.7l-4.6-12H8.4l8.1,21.2C19.1,28.6,20.8,26.1,20.8,23.1z"/>
		<polygon points="113.2,36.7 124.1,8.4 116.8,8.4 105.9,36.7 		"/>
		<path d="M107.5,23.1c0-0.9-0.2-1.9-0.5-2.7l-4.6-12h-7.3l8.1,21.2C105.7,28.6,107.5,26.1,107.5,23.1z"/>
		<polygon points="30.1,8.4 12.2,55.1 19.5,55.1 37.4,8.4 		"/>
	</g>
	<g>
		<path d="M35.6,48.9h-4.1l-0.8,1.9h-1.4l3.6-8.4h1.4l3.6,8.4h-1.5L35.6,48.9z M35,47.6l-1.5-3.7L32,47.6H35z"/>
		<path d="M44.4,42.4v1.3H40v2.3h4v1.3h-4v2.3h4.6v1.3h-6v-8.4H44.4z M43.4,40.3L42,41.4h-1.2l1.2-1.8L43.4,40.3z"/>
		<path d="M51.1,50.8l-1.5-2.5c-0.1,0-0.2,0-0.4,0h-1.9v2.5h-1.4v-8.4h3.3c2.1,0,3.3,1,3.3,2.9c0,1.3-0.6,2.3-1.7,2.7l1.8,2.8H51.1z
			 M49.2,47c1.3,0,2-0.6,2-1.7c0-1.1-0.7-1.6-2-1.6h-1.9V47H49.2z"/>
		<path d="M62,46.6c0,2.4-1.9,4.3-4.3,4.3c-2.4,0-4.3-1.9-4.3-4.3c0-2.4,1.9-4.2,4.3-4.2C60.1,42.3,62,44.2,62,46.6z M54.8,46.6
			c0,1.7,1.3,3,2.9,3c1.6,0,2.9-1.3,2.9-3c0-1.7-1.3-3-2.9-3C56.1,43.6,54.8,44.9,54.8,46.6z"/>
		<path d="M64.6,42.4l4.4,6v-6h1.4v8.4h-1.4l-4.3-6v6h-1.4v-8.4H64.6z"/>
		<path d="M77.4,48.9h-4.1l-0.8,1.9h-1.4l3.6-8.4h1.4l3.6,8.4h-1.5L77.4,48.9z M76.9,47.6l-1.5-3.7l-1.5,3.7H76.9z"/>
		<path d="M83.6,49.6c1.3,0,2.2-0.8,2.2-2.3v-4.9h1.4v4.9c0,2.2-1.3,3.5-3.5,3.5c-2.2,0-3.6-1.3-3.6-3.5v-4.9h1.4v4.9
			C81.4,48.7,82.3,49.6,83.6,49.6z"/>
		<path d="M94.4,42.4v1.3h-2.6v7.1h-1.4v-7.1h-2.6v-1.3H94.4z"/>
		<path d="M96.6,42.4v8.4h-1.4v-8.4H96.6z"/>
		<path d="M106.9,51.7c-0.6,0.6-1.5,0.9-2.2,0.9c-1,0-1.9-0.7-2.6-1.8c-2.4,0-4.3-1.9-4.3-4.3c0-2.4,1.9-4.2,4.3-4.2
			c2.4,0,4.3,1.8,4.3,4.2c0,1.9-1.2,3.5-2.9,4c0.4,0.5,0.9,0.8,1.4,0.8c0.4,0,1-0.3,1.5-0.7L106.9,51.7z M102.1,49.6
			c1.6,0,2.9-1.3,2.9-3c0-1.7-1.3-3-2.9-3c-1.6,0-2.9,1.3-2.9,3C99.2,48.2,100.5,49.6,102.1,49.6z"/>
		<path d="M111.1,49.6c1.3,0,2.2-0.8,2.2-2.3v-4.9h1.4v4.9c0,2.2-1.3,3.5-3.5,3.5c-2.2,0-3.6-1.3-3.6-3.5v-4.9h1.4v4.9
			C108.9,48.7,109.8,49.6,111.1,49.6z"/>
		<path d="M122.1,42.4v1.3h-4.4v2.3h4v1.3h-4v2.3h4.6v1.3h-6v-8.4H122.1z"/>
		<path d="M132.7,51c-0.5-0.5-0.9-0.9-1.3-1.3c-0.7,0.7-1.6,1.1-2.5,1.1c-1.5,0-2.6-1-2.6-2.4c0-1.2,0.8-1.8,1.8-2.3
			c-0.5-0.7-0.8-1.3-0.8-1.9c0-1.1,0.8-1.9,2.1-1.9c1.2,0,2.1,0.7,2.1,1.8c0,1.2-1,1.8-2,2.3c0.4,0.5,1,1.1,1.7,1.8
			c0.3-0.4,0.5-0.9,0.7-1.5l0.9,0.7c-0.2,0.6-0.5,1.1-0.8,1.6l1.3,1.3L132.7,51z M130.7,49c-0.8-0.8-1.5-1.5-2-2.1
			c-0.7,0.4-1.2,0.8-1.2,1.5c0,0.8,0.7,1.4,1.5,1.4C129.6,49.8,130.2,49.5,130.7,49z M129.1,45.7c0.8-0.4,1.5-0.9,1.5-1.6
			c0-0.6-0.4-0.9-1-0.9c-0.7,0-1.1,0.4-1.1,1C128.5,44.6,128.7,45.1,129.1,45.7z"/>
		<path d="M32.9,55.6c-0.8,0-1.3,0.3-1.3,0.9c0,1.8,4.4,0.9,4.4,3.9c0,1.5-1.3,2.4-3.1,2.4c-1.3,0-2.5-0.5-3.3-1.3l0.6-1.2
			c0.8,0.8,1.9,1.2,2.8,1.2c1,0,1.5-0.4,1.5-1c0-1.9-4.4-0.8-4.4-3.8c0-1.4,1.2-2.3,3-2.3c1.1,0,2.1,0.3,2.9,0.9l-0.6,1.2
			C34.4,55.9,33.5,55.6,32.9,55.6z"/>
		<path d="M40.6,60v2.8h-1.4V60l-3-5.6h1.4l2.3,4.1l2.3-4.1h1.4L40.6,60z"/>
		<path d="M46.9,55.6c-0.8,0-1.3,0.3-1.3,0.9c0,1.8,4.4,0.9,4.4,3.9c0,1.5-1.3,2.4-3.1,2.4c-1.3,0-2.5-0.5-3.3-1.3l0.6-1.2
			c0.8,0.8,1.9,1.2,2.8,1.2c1,0,1.5-0.4,1.5-1c0-1.9-4.4-0.8-4.4-3.8c0-1.4,1.2-2.3,3-2.3c1.1,0,2.1,0.3,2.9,0.9l-0.6,1.2
			C48.4,55.9,47.6,55.6,46.9,55.6z"/>
		<path d="M56.9,54.4v1.3h-2.6v7.1h-1.4v-7.1h-2.6v-1.3H56.9z"/>
		<path d="M63.6,54.4v1.3h-4.4v2.3h4v1.3h-4v2.3h4.6v1.3h-6v-8.4H63.6z M61.5,53.4h-1.2l-1.4-1.2l1.4-0.6L61.5,53.4z"/>
		<path d="M66.7,54.4l2.7,5.6l2.7-5.6h1.6v8.4h-1.3l0-6.3l-2.6,5.4H69l-2.6-5.4v6.3h-1.3v-8.4H66.7z"/>
		<path d="M81.4,54.4v1.3H77v2.3h4v1.3h-4v2.3h4.6v1.3h-6v-8.4H81.4z"/>
		<path d="M85.5,55.6c-0.8,0-1.3,0.3-1.3,0.9c0,1.8,4.4,0.9,4.4,3.9c0,1.5-1.3,2.4-3.1,2.4c-1.3,0-2.5-0.5-3.3-1.3l0.6-1.2
			c0.8,0.8,1.9,1.2,2.8,1.2c1,0,1.5-0.4,1.5-1c0-1.9-4.4-0.8-4.4-3.8c0-1.4,1.2-2.3,3-2.3c1.1,0,2.1,0.3,2.9,0.9l-0.6,1.2
			C87,55.9,86.1,55.6,85.5,55.6z"/>
		<path d="M98.9,54.4v1.3h-4.4v2.3h4v1.3h-4v2.3H99v1.3h-6v-8.4H98.9z"/>
		<path d="M102.1,54.4l2.7,5.6l2.7-5.6h1.6v8.4h-1.3l0-6.3l-2.6,5.4h-0.9l-2.6-5.4v6.3h-1.3v-8.4H102.1z"/>
		<path d="M117.2,56.5c0,0.9-0.5,1.6-1.4,1.9c1.1,0.2,1.7,1,1.7,2.1c0,1.4-1.1,2.3-3,2.3h-3.6v-8.4h3.5
			C116.1,54.4,117.2,55.2,117.2,56.5z M115.8,56.7c0-0.7-0.5-1.1-1.4-1.1h-2.1v2.2h2.1C115.2,57.9,115.8,57.4,115.8,56.7z
			 M116.1,60.3c0-0.7-0.6-1.2-1.7-1.2h-2.1v2.4h2.1C115.4,61.5,116.1,61.1,116.1,60.3z"/>
		<path d="M124.1,60.9H120l-0.8,1.9h-1.4l3.6-8.4h1.4l3.6,8.4h-1.5L124.1,60.9z M123.6,59.6l-1.5-3.7l-1.5,3.7H123.6z"/>
		<path d="M132.3,62.8l-1.5-2.5c-0.1,0-0.2,0-0.4,0h-1.9v2.5h-1.4v-8.4h3.3c2.1,0,3.3,1,3.3,2.9c0,1.3-0.6,2.3-1.7,2.7l1.8,2.8
			H132.3z M130.4,59c1.3,0,2-0.6,2-1.7c0-1.1-0.7-1.6-2-1.6h-1.9V59H130.4z"/>
		<path d="M143.7,63.7c-0.6,0.6-1.5,0.9-2.2,0.9c-1,0-1.9-0.7-2.6-1.8c-2.4,0-4.3-1.9-4.3-4.3c0-2.4,1.9-4.2,4.3-4.2
			c2.4,0,4.3,1.8,4.3,4.2c0,1.9-1.2,3.5-2.9,4c0.4,0.5,0.9,0.8,1.4,0.8c0.4,0,1-0.3,1.5-0.7L143.7,63.7z M138.9,61.6
			c1.6,0,2.9-1.3,2.9-3c0-1.7-1.3-3-2.9-3c-1.6,0-2.9,1.3-2.9,3C136,60.2,137.3,61.6,138.9,61.6z"/>
		<path d="M147.9,61.6c1.3,0,2.2-0.8,2.2-2.3v-4.9h1.4v4.9c0,2.2-1.3,3.5-3.5,3.5c-2.2,0-3.6-1.3-3.6-3.5v-4.9h1.4v4.9
			C145.7,60.7,146.5,61.6,147.9,61.6z"/>
		<path d="M158.9,54.4v1.3h-4.4v2.3h4v1.3h-4v2.3h4.6v1.3h-6v-8.4H158.9z M157.9,52.3l-1.4,1.2h-1.2l1.2-1.8L157.9,52.3z"/>
		<path d="M163,55.6c-0.8,0-1.3,0.3-1.3,0.9c0,1.8,4.4,0.9,4.4,3.9c0,1.5-1.3,2.4-3.1,2.4c-1.3,0-2.5-0.5-3.3-1.3l0.6-1.2
			c0.8,0.8,1.9,1.2,2.8,1.2c1,0,1.5-0.4,1.5-1c0-1.9-4.4-0.8-4.4-3.8c0-1.4,1.2-2.3,3-2.3c1.1,0,2.1,0.3,2.9,0.9l-0.6,1.2
			C164.5,55.9,163.6,55.6,163,55.6z"/>
	</g>
</g>
</svg>
