<?xml version="1.0" encoding="utf-8"?>
<!-- Generator: Adobe Illustrator 22.0.1, SVG Export Plug-In . SVG Version: 6.00 Build 0)  -->
<svg version="1.1" baseProfile="tiny" id="Calque_1"
	 xmlns="http://www.w3.org/2000/svg" xmlns:xlink="http://www.w3.org/1999/xlink" x="0px" y="0px" viewBox="0 0 122.85 58.37"
	 xml:space="preserve">
<g id="NON_OFFICIEL_Ynov_Bachelors_1_">
	<g>
		<g>
			<path fill="#00AFA0" d="M76.13,7.6c-7.38,0-13.35,5.98-13.35,13.36s5.98,13.36,13.35,13.36s13.36-5.98,13.36-13.36
				S83.5,7.6,76.13,7.6 M76.13,27.95c-3.86,0-7-3.13-7-7s3.13-7,7-7c3.86,0,7,3.13,7,7S79.99,27.95,76.13,27.95"/>
			<path fill="#00AFA0" d="M46.7,7.6c-7.38,0-13.36,5.98-13.36,13.36v12.72h6.36l0-12.72c0-3.87,3.13-7,7-7s7,3.13,7,7v12.72h6.36
				l0-12.72C60.05,13.58,54.07,7.6,46.7,7.6"/>
			<polygon fill="#00AFA0" points="27.61,8.24 10.85,50.22 17.69,50.22 34.46,8.24 			"/>
			<path fill="#00AFA0" d="M18.92,21.43c0-0.85-0.17-1.67-0.47-2.41l-4.3-10.79H7.3l7.62,19.08C17.28,26.39,18.92,24.12,18.92,21.43
				"/>
			<polygon fill="#00AFA0" points="108.71,8.24 98.55,33.68 105.39,33.68 115.55,8.24 			"/>
			<path fill="#00AFA0" d="M99.54,19.02L95.23,8.24h-6.85l7.62,19.08c2.37-0.93,4-3.19,4-5.89C100.01,20.58,99.85,19.76,99.54,19.02
				"/>
			<g>
				<path d="M39.79,44.3c0,0.9-0.54,1.59-1.42,1.81c1.08,0.2,1.74,0.98,1.74,2.07c0,1.4-1.16,2.25-3.02,2.25h-3.74v-8.17h3.63
					C38.72,42.26,39.79,43.04,39.79,44.3z M38.19,44.58c0-0.62-0.49-0.98-1.3-0.97h-1.98v1.98h1.98
					C37.7,45.6,38.19,45.23,38.19,44.58z M38.48,47.98c0-0.67-0.6-1.07-1.59-1.06h-1.98v2.16h1.98
					C37.89,49.09,38.48,48.68,38.48,47.98z"/>
				<path d="M46.95,48.71h-3.99l-0.72,1.73h-1.62l3.58-8.17h1.62l3.54,8.17h-1.68L46.95,48.71z M46.39,47.36l-1.42-3.43l-1.45,3.43
					H46.39z"/>
				<path d="M53.86,43.56c-1.54,0-2.74,1.2-2.74,2.75c0,1.54,1.2,2.77,2.74,2.77c0.78,0,1.61-0.37,2.22-0.97l0.92,1.03
					c-0.84,0.85-2.04,1.41-3.22,1.41c-2.4,0-4.26-1.84-4.26-4.21c0-2.37,1.88-4.18,4.32-4.18c1.17,0,2.36,0.5,3.15,1.32l-0.91,1.14
					C55.49,43.95,54.66,43.56,53.86,43.56z"/>
				<path d="M59.85,42.26v3.49h4.07v-3.49h1.56v8.17h-1.56v-3.31h-4.07v3.31h-1.56v-8.17H59.85z"/>
				<path d="M73.5,42.26v1.37h-4.42v2.02h3.97v1.37h-3.97v2.05h4.56v1.37h-6.13v-8.17H73.5z"/>
				<path d="M76.79,42.26v6.76h3.53v1.41h-5.09v-8.17H76.79z"/>
				<path d="M89.61,46.34c0,2.37-1.89,4.21-4.35,4.21s-4.35-1.84-4.35-4.21c0-2.38,1.89-4.18,4.35-4.18S89.61,43.97,89.61,46.34z
					 M82.51,46.34c0,1.56,1.27,2.8,2.78,2.8c1.49,0,2.73-1.24,2.73-2.8c0-1.56-1.24-2.78-2.73-2.78
					C83.77,43.56,82.51,44.77,82.51,46.34z"/>
				<path d="M96.11,50.43l-1.41-2.42c-0.09,0.01-0.19,0.01-0.29,0.01h-1.84v2.4H91v-8.17h3.41c2.11,0,3.32,1.02,3.32,2.81
					c0,1.28-0.57,2.21-1.62,2.65l1.8,2.71H96.11z M92.56,46.65h1.84c1.17,0,1.82-0.5,1.82-1.53c0-1-0.65-1.49-1.82-1.49h-1.84V46.65
					z"/>
				<path d="M102.13,43.56c-0.74,0-1.21,0.28-1.21,0.79c0,1.69,4.39,0.78,4.38,3.75c0,1.53-1.33,2.43-3.13,2.43
					c-1.31,0-2.58-0.53-3.46-1.31l0.65-1.33c0.84,0.77,1.95,1.23,2.83,1.23c0.88,0,1.4-0.35,1.4-0.93c0-1.73-4.39-0.75-4.39-3.69
					c0-1.44,1.23-2.36,3.06-2.36c1.09,0,2.17,0.35,2.95,0.86l-0.63,1.37C103.7,43.83,102.76,43.56,102.13,43.56z"/>
			</g>
		</g>
	</g>
</g>
</svg>
