<?xml version="1.0" encoding="utf-8"?>
<!-- Generator: Adobe Illustrator 22.0.1, SVG Export Plug-In . SVG Version: 6.00 Build 0)  -->
<svg version="1.1" baseProfile="tiny" id="Calque_1"
	 xmlns="http://www.w3.org/2000/svg" xmlns:xlink="http://www.w3.org/1999/xlink" x="0px" y="0px" viewBox="0 0 122.8 58.4"
	 xml:space="preserve">
<g id="NON_OFFICIEL_Ynov_Bachelors_1_">
	<g>
		<g>
			<path d="M76.1,7.6c-7.4,0-13.4,6-13.4,13.4s6,13.4,13.4,13.4s13.4-6,13.4-13.4S83.5,7.6,76.1,7.6 M76.1,28c-3.9,0-7-3.1-7-7
				s3.1-7,7-7c3.9,0,7,3.1,7,7S80,28,76.1,28"/>
			<path d="M46.7,7.6c-7.4,0-13.4,6-13.4,13.4v12.7h6.4l0-12.7c0-3.9,3.1-7,7-7s7,3.1,7,7v12.7h6.4l0-12.7
				C60.1,13.6,54.1,7.6,46.7,7.6"/>
			<polygon points="27.6,8.2 10.8,50.2 17.7,50.2 34.5,8.2 			"/>
			<path d="M18.9,21.4c0-0.9-0.2-1.7-0.5-2.4L14.1,8.2H7.3l7.6,19.1C17.3,26.4,18.9,24.1,18.9,21.4"/>
			<polygon points="108.7,8.2 98.5,33.7 105.4,33.7 115.5,8.2 			"/>
			<path d="M99.5,19L95.2,8.2h-6.8L96,27.3c2.4-0.9,4-3.2,4-5.9C100,20.6,99.8,19.8,99.5,19"/>
			<g>
				<path d="M39.8,44.3c0,0.9-0.5,1.6-1.4,1.8c1.1,0.2,1.7,1,1.7,2.1c0,1.4-1.2,2.3-3,2.3h-3.7v-8.2H37C38.7,42.3,39.8,43,39.8,44.3
					z M38.2,44.6c0-0.6-0.5-1-1.3-1h-2v2h2C37.7,45.6,38.2,45.2,38.2,44.6z M38.5,48c0-0.7-0.6-1.1-1.6-1.1h-2v2.2h2
					C37.9,49.1,38.5,48.7,38.5,48z"/>
				<path d="M47,48.7h-4l-0.7,1.7h-1.6l3.6-8.2h1.6l3.5,8.2h-1.7L47,48.7z M46.4,47.4L45,43.9l-1.4,3.4H46.4z"/>
				<path d="M53.9,43.6c-1.5,0-2.7,1.2-2.7,2.8c0,1.5,1.2,2.8,2.7,2.8c0.8,0,1.6-0.4,2.2-1l0.9,1c-0.8,0.9-2,1.4-3.2,1.4
					c-2.4,0-4.3-1.8-4.3-4.2c0-2.4,1.9-4.2,4.3-4.2c1.2,0,2.4,0.5,3.2,1.3l-0.9,1.1C55.5,44,54.7,43.6,53.9,43.6z"/>
				<path d="M59.8,42.3v3.5h4.1v-3.5h1.6v8.2h-1.6v-3.3h-4.1v3.3h-1.6v-8.2H59.8z"/>
				<path d="M73.5,42.3v1.4h-4.4v2h4V47h-4v2.1h4.6v1.4h-6.1v-8.2H73.5z"/>
				<path d="M76.8,42.3V49h3.5v1.4h-5.1v-8.2H76.8z"/>
				<path d="M89.6,46.3c0,2.4-1.9,4.2-4.4,4.2s-4.4-1.8-4.4-4.2c0-2.4,1.9-4.2,4.4-4.2S89.6,44,89.6,46.3z M82.5,46.3
					c0,1.6,1.3,2.8,2.8,2.8c1.5,0,2.7-1.2,2.7-2.8c0-1.6-1.2-2.8-2.7-2.8C83.8,43.6,82.5,44.8,82.5,46.3z"/>
				<path d="M96.1,50.4L94.7,48c-0.1,0-0.2,0-0.3,0h-1.8v2.4H91v-8.2h3.4c2.1,0,3.3,1,3.3,2.8c0,1.3-0.6,2.2-1.6,2.6l1.8,2.7H96.1z
					 M92.6,46.7h1.8c1.2,0,1.8-0.5,1.8-1.5c0-1-0.7-1.5-1.8-1.5h-1.8V46.7z"/>
				<path d="M102.1,43.6c-0.7,0-1.2,0.3-1.2,0.8c0,1.7,4.4,0.8,4.4,3.7c0,1.5-1.3,2.4-3.1,2.4c-1.3,0-2.6-0.5-3.5-1.3l0.7-1.3
					c0.8,0.8,1.9,1.2,2.8,1.2c0.9,0,1.4-0.4,1.4-0.9c0-1.7-4.4-0.7-4.4-3.7c0-1.4,1.2-2.4,3.1-2.4c1.1,0,2.2,0.4,3,0.9l-0.6,1.4
					C103.7,43.8,102.8,43.6,102.1,43.6z"/>
			</g>
		</g>
	</g>
</g>
</svg>
