<?xml version="1.0" encoding="utf-8"?>
<!-- Generator: Adobe Illustrator 22.0.1, SVG Export Plug-In . SVG Version: 6.00 Build 0)  -->
<svg version="1.1" baseProfile="tiny" id="Calque_1"
	 xmlns="http://www.w3.org/2000/svg" xmlns:xlink="http://www.w3.org/1999/xlink" x="0px" y="0px" viewBox="0 0 139.6 64.6"
	 xml:space="preserve">
<g>
	<path d="M82.3,37.2c7.9,0,14.2-6.3,14.2-14.1S90.1,9,82.3,9C74.4,9,68,15.3,68,23.1S74.4,37.2,82.3,37.2z M82.3,15.7
		c4.1,0,7.5,3.3,7.5,7.4c0,4.1-3.3,7.4-7.5,7.4c-4.1,0-7.5-3.3-7.5-7.4C74.8,19,78.2,15.7,82.3,15.7z"/>
	<path d="M36.7,37.2h6.8l0-13.8c0-4.2,3.3-7.6,7.5-7.6c4.1,0,7.5,3.4,7.5,7.6v13.8h6.8l0-13.8c0-8-6.4-14.5-14.2-14.5
		c-7.9,0-14.2,6.5-14.2,14.5V37.2z"/>
	<path d="M21.3,23.6c0-0.9-0.2-1.8-0.5-2.7L16.2,9H9l8.1,21.2C19.6,29.1,21.3,26.6,21.3,23.6z"/>
	<polygon points="113.4,37.2 124.3,9 117,9 106.2,37.2 	"/>
	<path d="M107.7,23.6c0-0.9-0.2-1.8-0.5-2.7l-4.6-12h-7.3l8.1,21.2C106,29.1,107.7,26.6,107.7,23.6z"/>
	<polygon points="30.6,9 12.7,55.5 20,55.5 37.9,9 	"/>
	<g>
		<path d="M43.6,49.9h-4.4l-0.8,1.9h-1.8l3.9-9h1.8l3.9,9h-1.8L43.6,49.9z M43,48.5l-1.6-3.8l-1.6,3.8H43z"/>
		<path d="M51.4,50.4c1.4,0,2.2-0.8,2.2-2.3v-5.2h1.7v5.2c0,2.4-1.5,3.8-3.9,3.8c-2.4,0-4-1.5-4-3.8v-5.2h1.7v5.2
			C49.1,49.5,50.1,50.4,51.4,50.4z"/>
		<path d="M66.3,47.3c0,2.6-2,4.5-4.7,4.5h-3.7v-9h3.7C64.3,42.9,66.3,44.7,66.3,47.3z M64.5,47.4c0-1.8-1.3-3-2.9-3h-2v5.9h2
			C63.3,50.3,64.5,49.1,64.5,47.4z"/>
		<path d="M70,42.9v9h-1.7v-9H70z"/>
		<path d="M81.5,47.3c0,2.6-2.1,4.6-4.8,4.6s-4.8-2-4.8-4.6c0-2.6,2.1-4.5,4.8-4.5S81.5,44.8,81.5,47.3z M73.7,47.3c0,1.7,1.4,3,3,3
			c1.6,0,3-1.3,3-3s-1.4-3-3-3C75.1,44.4,73.7,45.7,73.7,47.3z"/>
		<path d="M84.2,42.9l2.6,7.1l2.7-7.1h1.8l-3.6,9h-1.8l-3.5-9H84.2z"/>
		<path d="M94.6,42.9v9h-1.7v-9H94.6z"/>
		<path d="M100.2,44.4c-0.8,0-1.3,0.3-1.3,0.8c0,1.8,4.8,0.8,4.8,4c0,1.7-1.5,2.6-3.4,2.6c-1.4,0-2.8-0.6-3.8-1.4l0.7-1.4
			c0.9,0.8,2.1,1.3,3.1,1.3s1.5-0.4,1.5-1c0-1.9-4.8-0.8-4.8-4c0-1.6,1.3-2.6,3.4-2.6c1.2,0,2.4,0.4,3.2,0.9l-0.7,1.5
			C102,44.6,100.9,44.4,100.2,44.4z"/>
		<path d="M109.6,50.4c1.4,0,2.2-0.8,2.2-2.3v-5.2h1.7v5.2c0,2.4-1.5,3.8-3.9,3.8c-2.4,0-4-1.5-4-3.8v-5.2h1.7v5.2
			C107.4,49.5,108.3,50.4,109.6,50.4z"/>
		<path d="M122.7,42.9v1.5h-4.9v2.2h4.4v1.5h-4.4v2.3h5v1.5h-6.7v-9H122.7z"/>
		<path d="M126.8,42.9v7.4h3.9v1.5h-5.6v-9H126.8z"/>
	</g>
</g>
</svg>
