<?xml version="1.0" encoding="utf-8"?>
<!-- Generator: Adobe Illustrator 22.0.1, SVG Export Plug-In . SVG Version: 6.00 Build 0)  -->
<svg version="1.1" baseProfile="tiny" id="Calque_1"
	 xmlns="http://www.w3.org/2000/svg" xmlns:xlink="http://www.w3.org/1999/xlink" x="0px" y="0px" viewBox="0 0 150.9 73"
	 xml:space="preserve">
<g>
	<path fill="#FFFFFF" d="M82.1,37.1c7.8,0,14.2-6.3,14.2-14S89.9,9,82.1,9c-7.8,0-14.2,6.3-14.2,14.1S74.3,37.1,82.1,37.1z
		 M82.1,15.7c4.1,0,7.4,3.3,7.4,7.4c0,4.1-3.3,7.4-7.4,7.4c-4.1,0-7.4-3.3-7.4-7.4C74.7,19,78,15.7,82.1,15.7z"/>
	<path fill="#FFFFFF" d="M36.6,37.2h6.8l0-13.7c0-4.2,3.3-7.5,7.4-7.5c4.1,0,7.4,3.4,7.4,7.5v13.7H65l0-13.7c0-8-6.4-14.4-14.2-14.4
		c-7.8,0-14.2,6.4-14.2,14.4V37.2z"/>
	<path fill="#FFFFFF" d="M21.3,23.6c0-0.9-0.2-1.8-0.5-2.7L16.2,9H8.9L17,30.1C19.5,29.1,21.3,26.6,21.3,23.6z"/>
	<polygon fill="#FFFFFF" points="113.2,37.2 124,9 116.7,9 105.9,37.2 	"/>
	<path fill="#FFFFFF" d="M107.5,23.6c0-0.9-0.2-1.8-0.5-2.7L102.4,9h-7.3l8.1,21.1C105.7,29.1,107.5,26.6,107.5,23.6z"/>
	<polygon fill="#FFFFFF" points="30.5,9 12.7,55.5 20,55.5 37.8,9 	"/>
	<g>
		<path fill="#FFFFFF" d="M38.4,42.8v9h-1.7v-9H38.4z"/>
		<path fill="#FFFFFF" d="M42.7,42.8l4.6,6.1v-6.1H49v9h-1.6l-4.6-6.1v6.1h-1.7v-9H42.7z"/>
		<path fill="#FFFFFF" d="M57.9,42.8l0,1.5h-4.4v2.4h4.1v1.5h-4.1v3.5h-1.7v-9H57.9z"/>
		<path fill="#FFFFFF" d="M68.5,47.3c0,2.6-2.1,4.6-4.8,4.6s-4.8-2-4.8-4.6c0-2.6,2.1-4.5,4.8-4.5S68.5,44.7,68.5,47.3z M60.7,47.3
			c0,1.7,1.4,3,3,3c1.6,0,3-1.3,3-3s-1.4-3-3-3C62.1,44.3,60.7,45.6,60.7,47.3z"/>
		<path fill="#FFFFFF" d="M76.1,51.8l-1.5-2.6c-0.1,0-0.2,0-0.3,0h-2v2.6h-1.7v-9h3.7c2.3,0,3.6,1.1,3.6,3.1c0,1.4-0.6,2.4-1.8,2.9
			l2,3H76.1z M72.2,47.6h2c1.3,0,2-0.6,2-1.7c0-1.1-0.7-1.6-2-1.6h-2V47.6z"/>
		<path fill="#FFFFFF" d="M82.2,42.8l2.8,5.7l2.8-5.7h2v9h-1.6l0-6.4l-2.6,5.5h-1.1l-2.6-5.5v6.4h-1.6v-9H82.2z"/>
		<path fill="#FFFFFF" d="M98.3,49.9h-4.4l-0.8,1.9h-1.8l3.9-9h1.8l3.9,9h-1.8L98.3,49.9z M97.7,48.4l-1.6-3.8l-1.6,3.8H97.7z"/>
		<path fill="#FFFFFF" d="M107.9,42.8v1.5h-2.8v7.4h-1.7v-7.4h-2.8v-1.5H107.9z"/>
		<path fill="#FFFFFF" d="M111.4,42.8v9h-1.7v-9H111.4z"/>
		<path fill="#FFFFFF" d="M123.4,52.8c-0.7,0.6-1.6,1-2.5,1c-1.2,0-2.2-0.7-2.9-1.9c-2.7,0-4.7-2-4.7-4.6c0-2.6,2.1-4.5,4.8-4.5
			c2.7,0,4.8,2,4.8,4.5c0,2-1.3,3.7-3.1,4.3c0.4,0.5,0.9,0.8,1.4,0.8c0.5,0,1-0.3,1.6-0.7L123.4,52.8z M118.1,50.3c1.6,0,3-1.3,3-3
			s-1.4-3-3-3c-1.7,0-3,1.3-3,3S116.5,50.3,118.1,50.3z"/>
		<path fill="#FFFFFF" d="M128.8,50.3c1.4,0,2.2-0.8,2.2-2.3v-5.2h1.7v5.2c0,2.4-1.5,3.8-3.9,3.8c-2.4,0-4-1.5-4-3.8v-5.2h1.7v5.2
			C126.5,49.5,127.4,50.3,128.8,50.3z"/>
		<path fill="#FFFFFF" d="M141.8,42.8v1.5h-4.8v2.2h4.3V48h-4.3v2.3h5v1.5h-6.7v-9H141.8z"/>
	</g>
	<path fill="#FFFFFF" d="M72.2,55.5c2.6,0,4.6,2.1,4.6,4.7c0,2.4-2,4.5-4.7,4.5c-2.5,0-4.5-2.1-4.5-4.6
		C67.6,57.5,69.7,55.5,72.2,55.5 M72.2,63.4c1.9,0,3.4-1.5,3.4-3.3c0-1.9-1.5-3.4-3.4-3.4c-1.9,0-3.4,1.5-3.4,3.3
		C68.8,61.9,70.3,63.4,72.2,63.4"/>
	<path fill="#FFFFFF" d="M62.1,64.2c-0.1,0-0.3,0-0.4,0c-0.2,0-0.3-0.1-0.2-0.3c0.1-0.4,0.2-0.9,0.2-1.3c0.3-1.5,0.5-3,0.8-4.5
		c0.1-0.4,0.1-0.4,0.4-0.5c0.7-0.1,1.4-0.3,2.2-0.2c0.8,0.1,1.5,0.8,1.4,1.6c0,0.8-0.1,1.5-0.4,2.2c-0.4,0.8-1.1,1.2-2,1.3
		c-0.3,0-0.6,0-0.9,0c-0.1,0-0.2,0-0.2,0.1c-0.1,0.4-0.1,0.9-0.2,1.3c0,0.2-0.1,0.2-0.3,0.2C62.4,64.2,62.2,64.2,62.1,64.2
		 M63.3,61.4c0.3,0,0.6,0,0.8,0c0.3,0,0.5-0.2,0.6-0.4c0.1-0.2,0.2-0.5,0.2-0.7c0.1-0.4,0.1-0.8,0.1-1.2c0-0.3-0.1-0.4-0.4-0.5
		c-0.3,0-0.5,0-0.8,0c0,0-0.1,0.1-0.1,0.1C63.6,59.7,63.5,60.5,63.3,61.4"/>
	<path fill="#FFFFFF" d="M58,57.5h0.4c0.2,0,0.3,0,0.2,0.3c-0.1,0.5-0.2,1-0.3,1.5c-0.1,0.4-0.2,0.8-0.2,1.3
		c-0.1,0.7,0.1,0.9,0.8,0.8c0.2,0,0.4-0.2,0.5-0.4c0.1-0.4,0.2-0.7,0.2-1.1c0.1-0.7,0.3-1.4,0.4-2.1c0-0.2,0.1-0.2,0.3-0.2
		c0.3,0,0.6,0,0.9,0c0.2,0,0.3,0,0.2,0.3c-0.1,0.7-0.2,1.3-0.3,2c-0.1,0.4-0.1,0.8-0.3,1.2c-0.3,1-1.1,1.6-2.2,1.6
		c-0.3,0-0.7,0-1-0.1c-0.7-0.3-1.1-0.9-1-1.8c0.2-1,0.3-1.9,0.5-2.9c0-0.1,0.1-0.2,0.3-0.2C57.7,57.6,57.8,57.5,58,57.5"/>
	<path fill="#FFFFFF" d="M53.6,62.6c-0.5-0.1-0.9-0.1-1.4-0.2c-0.2,0-0.3-0.1-0.2-0.3c0-0.2,0.1-0.4,0.1-0.6c0-0.2,0.1-0.2,0.3-0.2
		c0.5,0,1,0.1,1.4,0.1c0.1,0,0.1,0,0.2,0c0.2,0,0.3-0.1,0.3-0.3c0-0.2-0.1-0.3-0.2-0.4c-0.3-0.2-0.7-0.5-1-0.7
		c-0.8-0.5-0.7-1.6-0.3-2.1c0.3-0.3,0.7-0.5,1.2-0.5c0.7-0.1,1.3,0,2,0.1c0.2,0,0.2,0.1,0.2,0.3c0,0.2-0.1,0.4-0.1,0.7
		c0,0.1-0.1,0.2-0.3,0.2c-0.4,0-0.8-0.1-1.2-0.1c-0.2,0-0.3,0-0.5,0c-0.1,0-0.2,0.1-0.2,0.2c-0.1,0.1,0,0.2,0.1,0.3
		c0.3,0.2,0.5,0.3,0.8,0.5c0.1,0.1,0.2,0.1,0.3,0.2c1.1,0.6,0.7,2,0,2.4c-0.4,0.2-0.8,0.3-1.2,0.3C53.9,62.6,53.8,62.6,53.6,62.6
		C53.6,62.6,53.6,62.6,53.6,62.6"/>
	<path fill="#FFFFFF" d="M46.2,62.5c-0.5,0-0.9,0.1-1.4,0.1c-0.7,0-1.2-0.5-1.2-1.2c0-0.9,0.1-1.7,0.5-2.5c0.3-0.6,0.8-0.9,1.5-1
		c0.6-0.1,1.1,0,1.6,0.1c0.1,0,0.2,0.1,0.2,0.3c-0.3,1.5-0.5,3-0.8,4.4c0,0.2-0.1,0.3-0.1,0.5c-0.2,0.7-0.7,1.1-1.4,1.1
		c-0.5,0-1.1-0.1-1.6-0.1c-0.1,0-0.2,0-0.2-0.2c0-0.1,0.1-0.2,0.2-0.2c0.5,0,1,0.1,1.5,0.1c0.6,0,0.9-0.2,1.1-0.8
		C46.1,62.9,46.1,62.7,46.2,62.5 M46.9,58.3c-0.4,0-0.9-0.1-1.3-0.1c-0.7,0-1.2,0.4-1.4,1.1c-0.1,0.2-0.1,0.5-0.2,0.7
		c-0.1,0.4-0.1,0.8-0.2,1.3c0,0.6,0.3,0.9,0.9,1c0.4,0,0.9-0.1,1.3-0.1c0,0,0.1-0.1,0.1-0.1c0.1-0.7,0.2-1.3,0.4-2
		C46.7,59.4,46.8,58.9,46.9,58.3"/>
	<path fill="#FFFFFF" d="M48.4,60.3c0,0.4,0,0.7,0,1c0.1,0.6,0.4,0.9,1,0.9c0.5,0,1.1-0.1,1.6-0.1c0.1,0,0.2-0.1,0.2,0.1
		c0,0.1,0,0.2-0.2,0.3c-0.5,0.1-1.1,0.1-1.6,0.1c-0.2,0-0.3,0-0.5-0.1c-0.5-0.2-0.9-0.5-0.9-1.1c-0.1-0.9,0.1-1.7,0.4-2.5
		c0.5-1,1.5-1.2,2.3-1c0.5,0.1,0.9,0.6,0.9,1.2c0,0.3,0,0.7-0.1,1c0,0.2-0.1,0.2-0.3,0.2c-0.9,0-1.7,0-2.6,0H48.4z M51.2,59.9
		c0-0.3,0-0.6,0-0.9c0-0.4-0.3-0.7-0.8-0.8c-1-0.2-2,0.6-2,1.7H51.2z"/>
	<path fill="#FFFFFF" d="M41.3,58.2c-0.2,0-0.3,0-0.5,0c-0.4,0.1-0.7,0.3-0.8,0.7c-0.1,0.4-0.2,0.8-0.3,1.3
		c-0.1,0.7-0.3,1.4-0.4,2.2c0,0.1-0.1,0.2-0.1,0.2c-0.2,0.1-0.3,0-0.3-0.2c0.2-1,0.4-2.1,0.6-3.1c0-0.1,0.1-0.3,0.1-0.4
		c0.2-0.6,0.6-1,1.3-1c0.3,0,0.7,0,1.1,0c0.5,0.1,0.9,0.5,0.8,1.1c0,0.5-0.1,1-0.2,1.5c-0.1,0.7-0.2,1.3-0.4,2
		c0,0.2-0.2,0.3-0.3,0.2c0,0-0.1-0.1-0.1-0.2c0.1-0.6,0.2-1.2,0.3-1.7c0.1-0.5,0.2-1.1,0.2-1.6c0-0.6-0.2-0.8-0.8-0.8
		C41.5,58.2,41.4,58.2,41.3,58.2L41.3,58.2z"/>
	<path fill="#FFFFFF" d="M37.3,62.4c0.1-0.4,0.2-0.9,0.2-1.3c0.2-1,0.3-1.9,0.5-2.9c0-0.1,0-0.3,0.2-0.3c0.2,0,0.2,0,0.2,0.2
		c-0.1,0.6-0.2,1.2-0.3,1.8c-0.1,0.8-0.3,1.6-0.4,2.5c0,0.1-0.1,0.2-0.2,0.2C37.3,62.5,37.3,62.5,37.3,62.4"/>
	<path fill="#FFFFFF" d="M72.7,60c-0.6-0.5-1.1-1-1.6-1.4c-0.3-0.3-0.4-0.6-0.1-0.9c0.2-0.3,0.6-0.3,0.9,0c0.7,0.6,1.4,1.2,2.1,1.8
		c0.3,0.3,0.3,0.7,0,1c-0.7,0.6-1.4,1.3-2.1,1.9c-0.3,0.2-0.7,0.2-0.9,0c-0.2-0.3-0.2-0.6,0.1-0.9c0.5-0.4,1-0.9,1.5-1.3
		C72.6,60.2,72.7,60.1,72.7,60"/>
</g>
</svg>
