<?xml version="1.0" encoding="utf-8"?>
<!-- Generator: Adobe Illustrator 22.0.1, SVG Export Plug-In . SVG Version: 6.00 Build 0)  -->
<svg version="1.1" baseProfile="tiny" id="Calque_1"
	 xmlns="http://www.w3.org/2000/svg" xmlns:xlink="http://www.w3.org/1999/xlink" x="0px" y="0px" viewBox="0 0 150.92 73.04"
	 xml:space="preserve">
<g>
	<path fill="#5DC5EA" d="M82.1,37.11c7.84,0,14.2-6.29,14.2-14.05S89.94,9.01,82.1,9.01c-7.84,0-14.2,6.29-14.2,14.05
		S74.25,37.11,82.1,37.11z M82.09,15.7c4.11,0,7.44,3.3,7.44,7.36c0,4.07-3.33,7.36-7.44,7.36c-4.11,0-7.44-3.3-7.44-7.36
		C74.66,19,77.99,15.7,82.09,15.7z"/>
	<path fill="#5DC5EA" d="M36.61,37.17h6.76l0-13.71c0-4.16,3.33-7.54,7.44-7.54c4.11,0,7.44,3.38,7.44,7.54v13.71h6.76l0-13.71
		c0-7.95-6.36-14.4-14.2-14.4c-7.84,0-14.2,6.45-14.2,14.4V37.17z"/>
	<path fill="#5DC5EA" d="M21.29,23.61c0-0.94-0.18-1.84-0.5-2.67L16.21,9.01H8.93l8.1,21.12C19.54,29.1,21.29,26.6,21.29,23.61z"/>
	<polygon fill="#5DC5EA" points="113.2,37.17 124,9.01 116.73,9.01 105.93,37.17 	"/>
	<path fill="#5DC5EA" d="M107.48,23.61c0-0.94-0.18-1.84-0.5-2.67l-4.58-11.94h-7.28l8.1,21.12
		C105.74,29.1,107.48,26.6,107.48,23.61z"/>
	<polygon fill="#5DC5EA" points="30.52,9.01 12.7,55.48 19.98,55.48 37.8,9.01 	"/>
	<g>
		<path d="M38.41,42.84v8.95h-1.71v-8.95H38.41z"/>
		<path d="M42.72,42.84l4.62,6.13v-6.13H49v8.95h-1.62l-4.6-6.11v6.11H41.1v-8.95H42.72z"/>
		<path d="M57.87,42.84l-0.01,1.5h-4.45v2.42h4.05v1.5h-4.05v3.54h-1.71v-8.95H57.87z"/>
		<path d="M68.48,47.32c0,2.57-2.07,4.55-4.77,4.55c-2.7,0-4.77-1.98-4.77-4.55c0-2.58,2.07-4.53,4.77-4.53
			C66.4,42.79,68.48,44.75,68.48,47.32z M60.69,47.32c0,1.69,1.39,3.02,3.04,3.02c1.64,0,2.99-1.33,2.99-3.02s-1.36-2.99-2.99-2.99
			C62.07,44.32,60.69,45.63,60.69,47.32z"/>
		<path d="M76.08,51.79l-1.55-2.65c-0.1,0.01-0.2,0.01-0.32,0.01h-2.02v2.63h-1.71v-8.95h3.73c2.31,0,3.63,1.11,3.63,3.08
			c0,1.41-0.63,2.42-1.78,2.9l1.97,2.97H76.08z M72.19,47.65h2.02c1.28,0,1.99-0.55,1.99-1.68c0-1.1-0.72-1.64-1.99-1.64h-2.02
			V47.65z"/>
		<path d="M82.19,42.84l2.81,5.74l2.8-5.74h1.97v8.95h-1.56L88.2,45.4l-2.65,5.47h-1.11L81.8,45.4v6.39h-1.59v-8.95H82.19z"/>
		<path d="M98.31,49.9h-4.37l-0.79,1.89h-1.78l3.93-8.95h1.78l3.87,8.95H99.1L98.31,49.9z M97.69,48.43l-1.56-3.76l-1.59,3.76H97.69
			z"/>
		<path d="M107.93,42.84v1.52h-2.79v7.43h-1.73v-7.43h-2.79v-1.52H107.93z"/>
		<path d="M111.35,42.84v8.95h-1.71v-8.95H111.35z"/>
		<path d="M123.39,52.82c-0.69,0.63-1.64,0.98-2.48,0.98c-1.15,0-2.17-0.71-2.85-1.93c-2.67-0.03-4.72-1.99-4.72-4.55
			c0-2.58,2.07-4.53,4.77-4.53c2.7,0,4.77,1.96,4.77,4.53c0,2.02-1.28,3.68-3.13,4.3c0.42,0.47,0.88,0.75,1.37,0.75
			c0.46,0,1.04-0.27,1.61-0.72L123.39,52.82z M118.14,50.33c1.64,0,2.99-1.33,2.99-3.02s-1.36-2.99-2.99-2.99
			c-1.66,0-3.04,1.3-3.04,2.99S116.49,50.33,118.14,50.33z"/>
		<path d="M128.77,50.33c1.36,0,2.21-0.84,2.21-2.27v-5.22h1.71v5.22c0,2.35-1.5,3.81-3.93,3.81c-2.44,0-3.98-1.46-3.98-3.81v-5.22
			h1.71v5.22C126.5,49.48,127.41,50.33,128.77,50.33z"/>
		<path d="M141.76,42.84v1.5h-4.85v2.21h4.35v1.5h-4.35v2.25h5v1.5h-6.71v-8.95H141.76z"/>
	</g>
	<path fill="#5DC5EA" d="M72.18,55.48c2.56,0,4.63,2.12,4.58,4.65c-0.04,2.41-2.04,4.53-4.68,4.48c-2.52-0.04-4.52-2.12-4.5-4.61
		C67.6,57.51,69.66,55.47,72.18,55.48 M72.17,63.39c1.86,0,3.37-1.49,3.37-3.32c0-1.87-1.5-3.37-3.36-3.38
		c-1.85,0-3.37,1.51-3.37,3.35C68.8,61.89,70.31,63.39,72.17,63.39"/>
	<path fill="#5DC5EA" d="M62.09,64.22c-0.14,0-0.29,0-0.44,0c-0.21,0-0.26-0.05-0.23-0.27c0.07-0.43,0.16-0.87,0.23-1.31
		c0.27-1.5,0.53-2.99,0.8-4.49c0.07-0.38,0.06-0.39,0.45-0.46c0.72-0.15,1.44-0.26,2.18-0.18c0.84,0.1,1.45,0.76,1.44,1.6
		c0,0.77-0.12,1.52-0.43,2.23c-0.38,0.84-1.08,1.21-1.97,1.26c-0.28,0.01-0.57-0.01-0.86-0.03c-0.12-0.01-0.17,0.01-0.19,0.15
		c-0.06,0.43-0.14,0.86-0.22,1.28c-0.03,0.15-0.11,0.24-0.28,0.23C62.41,64.21,62.25,64.22,62.09,64.22 M63.29,61.43
		c0.3,0,0.58,0.01,0.85,0c0.28-0.02,0.51-0.16,0.62-0.42c0.09-0.23,0.16-0.46,0.2-0.7c0.06-0.38,0.12-0.77,0.13-1.16
		c0.01-0.29-0.14-0.45-0.43-0.47c-0.26-0.02-0.52,0-0.78,0.01c-0.04,0-0.1,0.07-0.12,0.12C63.61,59.66,63.45,60.51,63.29,61.43"/>
	<path fill="#5DC5EA" d="M58,57.54h0.44c0.22,0,0.26,0.04,0.22,0.26c-0.09,0.51-0.18,1.02-0.27,1.53c-0.07,0.42-0.15,0.84-0.21,1.26
		c-0.09,0.67,0.15,0.9,0.82,0.79c0.23-0.04,0.41-0.17,0.48-0.4c0.1-0.35,0.18-0.71,0.25-1.07c0.13-0.71,0.25-1.43,0.38-2.15
		c0.03-0.17,0.12-0.24,0.29-0.24c0.3,0.01,0.6,0,0.9,0c0.24,0,0.27,0.03,0.23,0.27c-0.11,0.65-0.23,1.31-0.35,1.96
		c-0.08,0.42-0.14,0.84-0.28,1.25c-0.33,1.04-1.1,1.57-2.19,1.58c-0.33,0-0.66-0.02-0.97-0.14c-0.73-0.28-1.12-0.95-0.99-1.78
		c0.15-0.98,0.33-1.95,0.5-2.92c0.02-0.15,0.1-0.23,0.26-0.22C57.67,57.55,57.83,57.54,58,57.54"/>
	<path fill="#5DC5EA" d="M53.64,62.64c-0.46-0.07-0.93-0.13-1.39-0.2c-0.22-0.04-0.25-0.1-0.22-0.32c0.03-0.19,0.07-0.38,0.1-0.56
		c0.04-0.2,0.11-0.24,0.3-0.22c0.48,0.04,0.95,0.08,1.42,0.12c0.06,0,0.12-0.01,0.19-0.01c0.17-0.02,0.3-0.08,0.35-0.27
		c0.04-0.19-0.06-0.3-0.19-0.4c-0.33-0.22-0.67-0.45-1.01-0.65c-0.84-0.49-0.72-1.61-0.28-2.09c0.32-0.33,0.72-0.46,1.16-0.52
		c0.66-0.09,1.32-0.01,1.96,0.15c0.16,0.04,0.23,0.12,0.2,0.28c-0.04,0.22-0.07,0.44-0.11,0.65c-0.03,0.15-0.13,0.17-0.26,0.16
		c-0.39-0.03-0.78-0.07-1.17-0.1c-0.15-0.01-0.31-0.01-0.46,0.02c-0.09,0.02-0.19,0.11-0.23,0.19c-0.06,0.12,0.01,0.22,0.12,0.29
		c0.26,0.17,0.52,0.34,0.78,0.51c0.09,0.06,0.19,0.12,0.28,0.18c1.07,0.64,0.68,2-0.03,2.42c-0.37,0.21-0.77,0.31-1.19,0.34
		c-0.11,0.01-0.22,0-0.33,0C53.65,62.61,53.64,62.63,53.64,62.64"/>
	<path fill="#5DC5EA" d="M46.16,62.51c-0.48,0.02-0.94,0.07-1.39,0.05c-0.73-0.03-1.19-0.47-1.22-1.2
		c-0.04-0.87,0.12-1.73,0.47-2.53c0.27-0.63,0.79-0.93,1.46-0.99c0.55-0.05,1.1,0.02,1.64,0.12c0.15,0.03,0.21,0.08,0.18,0.26
		c-0.27,1.48-0.52,2.96-0.79,4.44c-0.03,0.17-0.07,0.33-0.13,0.49c-0.2,0.67-0.67,1.06-1.37,1.07c-0.55,0.01-1.09-0.06-1.64-0.09
		c-0.1-0.01-0.19-0.03-0.17-0.18c0.02-0.13,0.1-0.17,0.22-0.16c0.51,0.03,1.01,0.08,1.52,0.08c0.58,0,0.88-0.24,1.06-0.8
		C46.07,62.87,46.11,62.68,46.16,62.51 M46.89,58.25c-0.43-0.03-0.85-0.08-1.27-0.08c-0.72,0.01-1.17,0.41-1.38,1.08
		c-0.07,0.23-0.13,0.48-0.17,0.73c-0.07,0.42-0.14,0.83-0.16,1.25c-0.02,0.62,0.26,0.94,0.87,0.97c0.44,0.02,0.88-0.06,1.32-0.1
		c0.04,0,0.1-0.09,0.12-0.15c0.13-0.66,0.25-1.32,0.36-1.98C46.69,59.41,46.78,58.86,46.89,58.25"/>
	<path fill="#5DC5EA" d="M48.36,60.29c0,0.36-0.05,0.7-0.01,1.04c0.06,0.55,0.39,0.87,0.95,0.87c0.53,0,1.06-0.07,1.59-0.1
		c0.08,0,0.2-0.08,0.22,0.06c0.01,0.12-0.01,0.25-0.17,0.26c-0.53,0.06-1.06,0.11-1.58,0.15c-0.16,0.01-0.33-0.03-0.48-0.08
		c-0.54-0.16-0.86-0.54-0.91-1.08c-0.09-0.88,0.06-1.75,0.44-2.55c0.47-0.97,1.51-1.2,2.34-0.96c0.52,0.15,0.85,0.6,0.87,1.19
		c0.01,0.33-0.04,0.67-0.07,1c-0.02,0.17-0.14,0.2-0.3,0.2c-0.87,0-1.75,0-2.62,0H48.36z M51.2,59.92c0.01-0.32,0.03-0.62,0.01-0.93
		c-0.03-0.45-0.32-0.73-0.76-0.8c-1.04-0.17-1.96,0.64-1.96,1.73H51.2z"/>
	<path fill="#5DC5EA" d="M41.27,58.18c-0.17,0.01-0.33,0.01-0.49,0.03c-0.42,0.06-0.71,0.31-0.82,0.71
		c-0.11,0.42-0.19,0.84-0.27,1.27c-0.13,0.72-0.25,1.44-0.39,2.16c-0.01,0.08-0.07,0.19-0.13,0.21c-0.2,0.08-0.29-0.01-0.26-0.23
		c0.19-1.04,0.37-2.08,0.56-3.12c0.02-0.14,0.07-0.27,0.11-0.41c0.22-0.61,0.65-0.96,1.3-0.98c0.35-0.01,0.71-0.02,1.05,0.04
		c0.54,0.1,0.86,0.51,0.83,1.05c-0.02,0.48-0.11,0.97-0.19,1.45c-0.11,0.67-0.23,1.33-0.35,2c-0.03,0.18-0.16,0.26-0.32,0.19
		c-0.04-0.02-0.09-0.13-0.07-0.19c0.1-0.58,0.2-1.15,0.3-1.73c0.09-0.54,0.2-1.07,0.24-1.61c0.04-0.58-0.23-0.83-0.81-0.85
		C41.47,58.18,41.37,58.19,41.27,58.18L41.27,58.18z"/>
	<path fill="#5DC5EA" d="M37.27,62.35c0.08-0.44,0.15-0.88,0.23-1.32c0.17-0.97,0.34-1.93,0.52-2.9c0.02-0.13,0.02-0.28,0.22-0.28
		c0.18,0,0.22,0.03,0.19,0.21c-0.11,0.6-0.21,1.2-0.32,1.8c-0.14,0.82-0.29,1.64-0.43,2.45c-0.02,0.14-0.09,0.21-0.23,0.2
		C37.32,62.53,37.26,62.48,37.27,62.35"/>
	<path fill="#5DC5EA" d="M72.75,60.04c-0.55-0.49-1.08-0.96-1.61-1.42c-0.31-0.28-0.35-0.64-0.11-0.9c0.25-0.28,0.61-0.28,0.93-0.01
		c0.7,0.61,1.39,1.23,2.09,1.84c0.33,0.29,0.34,0.69,0.01,0.98c-0.71,0.63-1.43,1.26-2.15,1.89c-0.26,0.23-0.65,0.21-0.87-0.04
		c-0.23-0.26-0.21-0.63,0.06-0.87c0.48-0.43,0.97-0.86,1.46-1.29C72.6,60.17,72.67,60.11,72.75,60.04"/>
</g>
</svg>
