<?xml version="1.0" encoding="utf-8"?>
<!-- Generator: Adobe Illustrator 22.0.1, SVG Export Plug-In . SVG Version: 6.00 Build 0)  -->
<svg version="1.1" baseProfile="tiny" id="Calque_1"
	 xmlns="http://www.w3.org/2000/svg" xmlns:xlink="http://www.w3.org/1999/xlink" x="0px" y="0px" viewBox="0 0 174.7 73.8"
	 xml:space="preserve">
<g>
	<path d="M82.5,37.3c7.9,0,14.3-6.3,14.3-14.1S90.4,9.1,82.5,9.1c-7.9,0-14.3,6.3-14.3,14.1S74.6,37.3,82.5,37.3z M82.5,15.8
		c4.1,0,7.5,3.3,7.5,7.4c0,4.1-3.3,7.4-7.5,7.4c-4.1,0-7.5-3.3-7.5-7.4C75,19.1,78.4,15.8,82.5,15.8z"/>
	<path d="M36.8,37.3h6.8l0-13.8c0-4.2,3.3-7.6,7.5-7.6c4.1,0,7.5,3.4,7.5,7.6v13.8h6.8l0-13.8C65.4,15.5,59,9,51.1,9
		c-7.9,0-14.3,6.5-14.3,14.5V37.3z"/>
	<path d="M21.4,23.7c0-0.9-0.2-1.9-0.5-2.7L16.3,9H9l8.1,21.2C19.7,29.2,21.4,26.7,21.4,23.7z"/>
	<polygon points="113.8,37.3 124.6,9 117.3,9 106.5,37.3 	"/>
	<path d="M108,23.7c0-0.9-0.2-1.9-0.5-2.7l-4.6-12h-7.3l8.1,21.2C106.3,29.2,108,26.7,108,23.7z"/>
	<polygon points="30.7,9 12.8,55.7 20.1,55.7 38,9 	"/>
	<g>
		<path d="M45.1,47.5c0,2.6-2,4.5-4.8,4.5h-3.7v-9h3.7C43.1,43,45.1,44.9,45.1,47.5z M43.3,47.5c0-1.8-1.3-3-3-3h-2v6h2.1
			C42.1,50.5,43.3,49.2,43.3,47.5z"/>
		<path d="M48.8,43v9h-1.7v-9H48.8z"/>
		<path d="M57.6,47.5h1.5v3.4c-0.9,0.7-2.3,1.2-3.6,1.2c-2.7,0-4.8-2-4.8-4.6s2.1-4.5,4.9-4.5c1.3,0,2.6,0.5,3.5,1.3l-1,1.3
			c-0.7-0.6-1.6-1-2.5-1c-1.7,0-3.1,1.3-3.1,3c0,1.7,1.4,3,3.1,3c0.6,0,1.3-0.2,1.9-0.6V47.5z"/>
		<path d="M63.3,43v9h-1.7v-9H63.3z"/>
		<path d="M72.4,43v1.5h-2.8V52h-1.7v-7.5H65V43H72.4z"/>
		<path d="M79,50.1h-4.4L73.9,52h-1.8l3.9-9h1.8l3.9,9h-1.9L79,50.1z M78.4,48.6l-1.6-3.8l-1.6,3.8H78.4z"/>
		<path d="M85,43v7.4h3.9V52h-5.6v-9H85z"/>
		<path d="M43.7,58.1c0,1-0.6,1.7-1.6,2c1.2,0.2,1.9,1.1,1.9,2.3c0,1.5-1.3,2.5-3.3,2.5h-4.1v-9h4C42.6,55.8,43.7,56.7,43.7,58.1z
			 M42,58.4c0-0.7-0.5-1.1-1.4-1.1h-2.2v2.2h2.2C41.4,59.5,42,59.1,42,58.4z M42.3,62.1c0-0.7-0.7-1.2-1.7-1.2h-2.2v2.4h2.2
			C41.6,63.3,42.3,62.9,42.3,62.1z"/>
		<path d="M50.1,63.4c1.4,0,2.2-0.8,2.2-2.3v-5.2H54v5.2c0,2.4-1.5,3.8-3.9,3.8c-2.5,0-4-1.5-4-3.8v-5.2h1.7v5.2
			C47.8,62.5,48.7,63.4,50.1,63.4z"/>
		<path d="M59.5,57.3c-0.8,0-1.3,0.3-1.3,0.8c0,1.8,4.8,0.8,4.8,4.1c0,1.7-1.5,2.7-3.4,2.7c-1.4,0-2.8-0.6-3.8-1.4l0.7-1.5
			c0.9,0.8,2.1,1.3,3.1,1.3s1.5-0.4,1.5-1c0-1.9-4.8-0.8-4.8-4c0-1.6,1.3-2.6,3.4-2.6c1.2,0,2.4,0.4,3.3,1l-0.7,1.5
			C61.2,57.6,60.2,57.3,59.5,57.3z"/>
		<path d="M66.8,55.8v9h-1.7v-9H66.8z"/>
		<path d="M71.2,55.8l4.6,6.2v-6.2h1.7v9h-1.6l-4.6-6.1v6.1h-1.7v-9H71.2z"/>
		<path d="M86.8,55.8v1.5h-4.9v2.2h4.4v1.5h-4.4v2.3h5v1.5h-6.7v-9H86.8z"/>
		<path d="M92.1,57.3c-0.8,0-1.3,0.3-1.3,0.8c0,1.8,4.8,0.8,4.8,4.1c0,1.7-1.5,2.7-3.4,2.7c-1.4,0-2.8-0.6-3.8-1.4l0.7-1.5
			c0.9,0.8,2.1,1.3,3.1,1.3c1,0,1.5-0.4,1.5-1c0-1.9-4.8-0.8-4.8-4c0-1.6,1.3-2.6,3.4-2.6c1.2,0,2.4,0.4,3.3,1l-0.7,1.5
			C93.9,57.6,92.8,57.3,92.1,57.3z"/>
		<path d="M100.7,57.3c-0.8,0-1.3,0.3-1.3,0.8c0,1.8,4.8,0.8,4.8,4.1c0,1.7-1.5,2.7-3.4,2.7c-1.4,0-2.8-0.6-3.8-1.4l0.7-1.5
			c0.9,0.8,2.1,1.3,3.1,1.3c1,0,1.5-0.4,1.5-1c0-1.9-4.8-0.8-4.8-4c0-1.6,1.3-2.6,3.4-2.6c1.2,0,2.4,0.4,3.3,1l-0.7,1.5
			C102.4,57.6,101.4,57.3,100.7,57.3z"/>
		<path d="M113,57.3c-0.8,0-1.3,0.3-1.3,0.8c0,1.8,4.8,0.8,4.8,4.1c0,1.7-1.5,2.7-3.4,2.7c-1.4,0-2.8-0.6-3.8-1.4l0.7-1.5
			c0.9,0.8,2.1,1.3,3.1,1.3c1,0,1.5-0.4,1.5-1c0-1.9-4.8-0.8-4.8-4c0-1.6,1.3-2.6,3.4-2.6c1.2,0,2.4,0.4,3.3,1l-0.7,1.5
			C114.7,57.6,113.7,57.3,113,57.3z"/>
		<path d="M122.7,57.3c-1.7,0-3,1.3-3,3c0,1.7,1.3,3,3,3c0.9,0,1.8-0.4,2.4-1.1l1,1.1c-0.9,0.9-2.2,1.5-3.5,1.5
			c-2.6,0-4.7-2-4.7-4.6c0-2.6,2.1-4.5,4.8-4.5c1.3,0,2.6,0.6,3.5,1.4l-1,1.3C124.5,57.8,123.6,57.3,122.7,57.3z"/>
		<path d="M129.8,55.8v3.8h4.5v-3.8h1.7v9h-1.7v-3.6h-4.5v3.6H128v-9H129.8z"/>
		<path d="M147.6,60.3c0,2.6-2.1,4.6-4.8,4.6c-2.7,0-4.8-2-4.8-4.6c0-2.6,2.1-4.5,4.8-4.5C145.5,55.8,147.6,57.7,147.6,60.3z
			 M139.7,60.3c0,1.7,1.4,3,3.1,3c1.6,0,3-1.3,3-3c0-1.7-1.4-3-3-3C141.1,57.3,139.7,58.6,139.7,60.3z"/>
		<path d="M158.1,60.3c0,2.6-2.1,4.6-4.8,4.6s-4.8-2-4.8-4.6c0-2.6,2.1-4.5,4.8-4.5S158.1,57.7,158.1,60.3z M150.3,60.3
			c0,1.7,1.4,3,3.1,3c1.6,0,3-1.3,3-3c0-1.7-1.4-3-3-3C151.7,57.3,150.3,58.6,150.3,60.3z"/>
		<path d="M161.9,55.8v7.4h3.9v1.6h-5.6v-9H161.9z"/>
	</g>
</g>
</svg>
